<svg xmlns="http://www.w3.org/2000/svg" viewBox="0 0 321.96 53.14" fill="currentColor"><path d="M28.39 15.20L21.20 31.41L35.01 31.41L28.39 15.20M55.83 52.23L55.83 52.42L41.51 52.42C41.64 52.00 41.70 51.44 41.70 50.72C41.70 48.83 40.86 45.82 39.18 41.70L38.04 38.92L17.85 38.92L16.53 41.89C14.85 45.71 14.00 48.66 14.00 50.72C14.00 51.10 14.05 51.66 14.13 52.42L0.00 52.42L0.00 52.23C2.44 49.38 4.83 45.40 7.19 40.31L19.62 13.50C22.19 7.99 23.85 3.74 24.60 0.75L32.74 0.75C33.42 3.57 34.97 7.82 37.41 13.50L48.89 40.50C50.91 45.17 53.22 49.08 55.83 52.23" fill-rule="nonzero"/><path d="M68.67 37.59L68.67 15.58C68.67 9.99 67.94 5.05 66.47 0.75L96.56 0.75L91.89 9.78C88.82 8.01 84.17 7.12 77.95 7.12L77.95 23.72L94.92 23.72L90.44 32.68C87.62 31.12 83.46 30.34 77.95 30.34L77.95 37.59C77.95 43.19 78.68 48.14 80.16 52.42L66.47 52.42C67.94 48.14 68.67 43.19 68.67 37.59" fill-rule="nonzero"/><path d="M109.49 24.47C109.40 30.19 111.19 35.23 114.85 39.59C118.51 43.93 123.01 46.05 128.35 45.93C132.94 45.93 136.71 44.23 139.68 40.85C142.64 37.46 144.12 33.33 144.12 28.45C144.25 22.82 142.38 17.83 138.51 13.50C134.64 9.17 130.12 7.06 124.94 7.19C120.70 7.11 117.04 8.70 113.97 11.99C110.90 15.27 109.40 19.43 109.49 24.47M154.28 25.99C154.36 31.04 153.17 35.66 150.68 39.87C148.20 44.08 144.82 47.35 140.53 49.68C136.24 52.01 131.55 53.14 126.46 53.05C121.24 53.14 116.51 51.93 112.27 49.42C108.02 46.93 104.77 43.65 102.52 39.62C100.27 35.58 99.18 31.31 99.27 26.81C99.18 22.10 100.37 17.67 102.83 13.53C105.29 9.39 108.66 6.09 112.93 3.66C117.19 1.21 121.79 0.04 126.71 0.12C134.37 0.00 140.90 2.41 146.33 7.35C151.76 12.29 154.41 18.50 154.28 25.99" fill-rule="nonzero"/><path d="M208.41 17.60L208.41 35.58C208.41 41.84 208.95 47.46 210.05 52.42L197.87 52.42C197.45 50.91 196.11 48.62 193.84 45.54L173.02 18.10L173.02 35.58C173.02 39.53 173.16 42.66 173.46 44.98C173.75 47.42 174.32 49.90 175.16 52.42L161.85 52.42C162.61 50.07 163.16 47.56 163.49 44.92C163.83 42.31 163.99 39.20 163.99 35.58L163.99 8.14C161.93 5.45 159.64 3.07 157.12 1.01L157.12 0.75L172.32 0.75C172.74 2.02 173.33 3.30 174.09 4.60C174.68 5.61 175.88 7.30 177.68 9.65L199.39 38.29L199.39 17.60C199.39 13.98 199.22 10.89 198.88 8.33C198.54 5.63 198.00 3.11 197.24 0.75L210.62 0.75C209.73 3.57 209.14 6.08 208.85 8.26C208.56 10.58 208.41 13.69 208.41 17.60" fill-rule="nonzero"/><path d="M250.17 26.81C250.17 21.01 248.34 16.28 244.68 12.64C241.02 9.01 236.06 7.04 229.79 6.75C229.54 9.19 229.41 12.28 229.41 16.02L229.41 36.02C229.41 39.93 229.58 43.28 229.92 46.05C236.23 45.71 241.18 43.89 244.77 40.56C248.37 37.24 250.17 32.65 250.17 26.81M220.14 37.59L220.14 15.58C220.14 10.07 219.28 5.17 217.55 0.88C222.05 0.54 225.42 0.38 227.65 0.38C238.20 0.38 246.40 2.71 252.25 7.38C258.10 12.05 261.02 18.31 261.02 26.18C261.10 31.48 259.79 36.14 257.08 40.18C254.36 44.22 250.65 47.28 245.94 49.36C241.23 51.44 235.93 52.47 230.04 52.42L217.93 52.42C219.40 48.14 220.14 43.19 220.14 37.59" fill-rule="nonzero"/><path d="M277.05 24.47C276.96 30.19 278.75 35.23 282.41 39.59C286.07 43.93 290.57 46.05 295.91 45.93C300.49 45.93 304.26 44.23 307.23 40.85C310.20 37.46 311.68 33.33 311.68 28.45C311.81 22.82 309.93 17.83 306.06 13.50C302.19 9.17 297.67 7.06 292.50 7.19C288.25 7.11 284.59 8.70 281.52 11.99C278.45 15.27 276.96 19.43 277.05 24.47M321.83 25.99C321.92 31.04 320.72 35.66 318.24 39.87C315.76 44.08 312.37 47.35 308.08 49.68C303.79 52.01 299.10 53.14 294.01 53.05C288.80 53.14 284.07 51.93 279.82 49.42C275.57 46.93 272.32 43.65 270.07 39.62C267.82 35.58 266.74 31.31 266.83 26.81C266.74 22.10 267.93 17.67 270.39 13.53C272.85 9.39 276.21 6.09 280.48 3.66C284.75 1.21 289.34 0.04 294.27 0.12C301.92 0.00 308.46 2.41 313.89 7.35C319.31 12.29 321.96 18.50 321.83 25.99" fill-rule="nonzero"/></svg>